<svg width="11" height="9" viewBox="0 0 11 9" fill="none" xmlns="http://www.w3.org/2000/svg">
<path fill-rule="evenodd" clip-rule="evenodd" d="M5.49992 3.16263L4.65626 1.83688C4.35951 1.37055 3.83061 1.0625 3.20825 1.0625C2.24804 1.0625 1.45825 1.85228 1.45825 2.8125C1.45825 3.19175 1.63932 3.66862 2.05195 4.23036C2.45638 4.78094 3.01742 5.32311 3.61337 5.81206C4.20437 6.29695 4.80035 6.70573 5.2513 6.99441C5.34135 7.05205 5.42523 7.10466 5.5017 7.15189C5.57782 7.10518 5.66126 7.05316 5.7508 6.99618C6.20145 6.70941 6.79699 6.30295 7.38751 5.81979C7.98297 5.3326 8.54342 4.79158 8.94742 4.24067C9.35904 3.67937 9.54158 3.19912 9.54158 2.8125C9.54158 1.85228 8.7518 1.0625 7.79158 1.0625C7.16923 1.0625 6.64033 1.37055 6.34358 1.83688L5.49992 3.16263ZM5.49992 8.3125C5.49992 8.3125 0.458252 5.53958 0.458252 2.8125C0.458252 1.3 1.69575 0.0625 3.20825 0.0625C3.80006 0.0625 4.34854 0.244439 4.79511 0.560373C5.07483 0.758269 5.31457 1.00874 5.49992 1.3C5.68527 1.00874 5.925 0.758269 6.20473 0.560373C6.6513 0.244439 7.19978 0.0625 7.79158 0.0625C9.30408 0.0625 10.5416 1.3 10.5416 2.8125C10.5416 5.5625 5.49992 8.3125 5.49992 8.3125Z" fill="#FF9401"/>
</svg>
